<?xml version="1.0" encoding="UTF-8" standalone="no"?>
<!-- Created with Inkscape (http://www.inkscape.org/) -->

<svg
   width="900mm"
   height="900mm"
   viewBox="0 0 900 900.00001"
   version="1.1"
   id="svg1"
   inkscape:version="1.4 (86a8ad7, 2024-10-11)"
   sodipodi:docname="small_90x90.svg"
   xmlns:inkscape="http://www.inkscape.org/namespaces/inkscape"
   xmlns:sodipodi="http://sodipodi.sourceforge.net/DTD/sodipodi-0.dtd"
   xmlns="http://www.w3.org/2000/svg"
   xmlns:svg="http://www.w3.org/2000/svg">
  <sodipodi:namedview
     id="namedview1"
     pagecolor="#ffffff"
     bordercolor="#cccccc"
     borderopacity="1"
     inkscape:showpageshadow="0"
     inkscape:pageopacity="1"
     inkscape:pagecheckerboard="0"
     inkscape:deskcolor="#d1d1d1"
     inkscape:document-units="mm"
     inkscape:zoom="0.17417514"
     inkscape:cx="1791.3004"
     inkscape:cy="1702.3095"
     inkscape:window-width="1366"
     inkscape:window-height="745"
     inkscape:window-x="-8"
     inkscape:window-y="-8"
     inkscape:window-maximized="1"
     inkscape:current-layer="layer1" />
  <defs
     id="defs1" />
  <g
     inkscape:label="Layer 1"
     inkscape:groupmode="layer"
     id="layer1">
    <path
       style="fill:none;fill-opacity:0.0352941;stroke:#000000;stroke-width:1;stroke-linecap:butt;stroke-dasharray:none"
       d="m 308.60268,404.01551 -94.9483,-36.1877"
       id="path2" />
    <path
       style="fill:none;fill-opacity:0.0352941;stroke:#000000;stroke-width:1;stroke-linecap:butt;stroke-dasharray:none"
       d="m 358.31688,249.24911 c 0,0 0.4997,6.7888 -2.6451,19.4245 -2.0047,8.0548 -3.4565,16.9882 -7.1667,25.3226 -5.0906,11.4353 -11.4779,26.2595 -18.084,35.082 -6.0395,8.0658 -13.9681,28.1536 -15.9041,34.8086 -2.4968,8.5822 -3.9891,15.8753 -4.8683,21.7937 -0.1645,1.1074 -2.9089,2.1158 -3.033,3.1263 -0.1093,0.8898 2.3974,1.7927 2.3157,2.6066 -0.8302,8.2679 -0.3287,12.6021 -0.3287,12.6021"
       id="path4"
       sodipodi:nodetypes="csssssssc" />
    <path
       style="fill:none;fill-opacity:0.0352941;stroke:#000000;stroke-width:1;stroke-linecap:butt;stroke-dasharray:none"
       d="m 308.62148,94.206347 c 0,0 -0.4106,4.38284 -0.033,11.689253 0.044,0.85735 -1.8152,2.35463 -1.7237,3.15902 0.1117,0.98344 2.1841,1.27488 2.3407,2.36707 1.0364,7.2282 3.2192,16.27552 7.6333,26.23892 5.3903,12.1669 10.9822,25.5609 15.8195,33.0765 3.7674,5.8535 8.3604,16.0895 14.6523,25.7022 1.6786,2.5646 3.872,6.2031 7.5687,21.725 2.745,11.5256 3.4371,31.0848 3.4371,31.0848"
       id="path5"
       sodipodi:nodetypes="csssssssc" />
    <path
       style="fill:none;fill-opacity:0.0352941;stroke:#000000;stroke-width:1;stroke-linecap:butt;stroke-dasharray:none"
       d="m 308.62148,94.206347 -94.7415,35.768363"
       id="path6" />
    <path
       style="fill:none;fill-opacity:0.0352941;stroke:#000000;stroke-width:1;stroke-linecap:butt;stroke-dasharray:none"
       d="m 213.87998,129.97471 -23.8278,-12.02806"
       id="path7" />
    <path
       style="fill:none;fill-opacity:0.0352941;stroke:#000000;stroke-width:1;stroke-linecap:butt;stroke-dasharray:none"
       d="m 190.05218,117.94665 -0.5458,261.66586"
       id="path8" />
    <path
       style="fill:none;fill-opacity:0.0352941;stroke:#000000;stroke-width:1;stroke-linecap:butt;stroke-dasharray:none"
       d="m 189.50638,379.61251 24.148,-11.7847"
       id="path9" />
    <path
       style="fill-opacity:0;stroke-width:1;stroke-dasharray:none"
       d="M 147.92313,148.45402 96.797625,8.1756646 20.452305,14.632485"
       id="path23" />
    <g
       gcodetools="Preview group"
       id="g120"
       style="stroke-width:1;stroke-dasharray:none"
       transform="matrix(1,0,0,-1,-77.018815,914.92231)" />
    <g
       gcodetools="Preview group"
       id="g121"
       style="stroke-width:1;stroke-dasharray:none"
       transform="matrix(1,0,0,-1,-77.018815,914.92231)" />
    <g
       gcodetools="Preview group"
       id="g122"
       style="stroke-width:1;stroke-dasharray:none"
       transform="matrix(1,0,0,-1,-77.018815,914.92231)" />
    <g
       gcodetools="Preview group"
       id="g123"
       style="stroke-width:1;stroke-dasharray:none"
       transform="matrix(1,0,0,-1,-77.018815,914.92231)" />
    <g
       gcodetools="Preview group"
       id="g124"
       style="stroke-width:1;stroke-dasharray:none"
       transform="matrix(1,0,0,-1,-77.018815,914.92231)" />
    <g
       gcodetools="Preview group"
       id="g125"
       style="stroke-width:1;stroke-dasharray:none"
       transform="matrix(1,0,0,-1,-77.018815,914.92231)" />
    <g
       gcodetools="Preview group"
       id="g126"
       style="stroke-width:1;stroke-dasharray:none"
       transform="matrix(1,0,0,-1,-77.018815,914.92231)" />
    <g
       gcodetools="Preview group"
       id="g127"
       style="stroke-width:1;stroke-dasharray:none"
       transform="matrix(1,0,0,-1,-77.018815,914.92231)" />
    <g
       gcodetools="Preview group"
       id="g128"
       style="stroke-width:1;stroke-dasharray:none"
       transform="matrix(1,0,0,-1,-77.018815,914.92231)" />
    <g
       gcodetools="Preview group"
       id="g129"
       style="stroke-width:1;stroke-dasharray:none"
       transform="matrix(1,0,0,-1,-77.018815,914.92231)" />
    <g
       gcodetools="Preview group"
       id="g130"
       style="stroke-width:1;stroke-dasharray:none"
       transform="matrix(1,0,0,-1,-77.018815,914.92231)" />
    <g
       gcodetools="Preview group"
       id="g131"
       style="stroke-width:1;stroke-dasharray:none"
       transform="matrix(1,0,0,-1,-77.018815,914.92231)" />
    <g
       gcodetools="Preview group"
       id="g197"
       style="stroke-width:1;stroke-dasharray:none"
       transform="matrix(1,0,0,-1,-77.018815,914.92231)" />
    <g
       gcodetools="Preview group"
       id="g198"
       style="stroke-width:1;stroke-dasharray:none"
       transform="matrix(1,0,0,-1,-77.018815,914.92231)" />
    <g
       gcodetools="Preview group"
       id="g199"
       style="stroke-width:1;stroke-dasharray:none"
       transform="matrix(1,0,0,-1,-77.018815,914.92231)" />
    <g
       gcodetools="Preview group"
       id="g200"
       style="stroke-width:1;stroke-dasharray:none"
       transform="matrix(1,0,0,-1,-77.018815,914.92231)" />
    <g
       gcodetools="Preview group"
       id="g201"
       style="stroke-width:1;stroke-dasharray:none"
       transform="matrix(1,0,0,-1,-77.018815,914.92231)" />
    <g
       gcodetools="Preview group"
       id="g202"
       style="stroke-width:1;stroke-dasharray:none"
       transform="matrix(1,0,0,-1,-77.018815,914.92231)" />
    <g
       gcodetools="Preview group"
       id="g203"
       style="stroke-width:1;stroke-dasharray:none"
       transform="matrix(1,0,0,-1,-77.018815,914.92231)" />
    <g
       gcodetools="Preview group"
       id="g204"
       style="stroke-width:1;stroke-dasharray:none"
       transform="matrix(1,0,0,-1,-77.018815,914.92231)" />
    <g
       gcodetools="Preview group"
       id="g205"
       style="stroke-width:1;stroke-dasharray:none"
       transform="matrix(1,0,0,-1,-77.018815,914.92231)" />
    <g
       gcodetools="Preview group"
       id="g206"
       style="stroke-width:1;stroke-dasharray:none"
       transform="matrix(1,0,0,-1,-77.018815,914.92231)" />
    <g
       gcodetools="Preview group"
       id="g207"
       style="stroke-width:1;stroke-dasharray:none"
       transform="matrix(1,0,0,-1,-77.018815,914.92231)" />
    <g
       gcodetools="Preview group"
       id="g208"
       style="stroke-width:1;stroke-dasharray:none"
       transform="matrix(1,0,0,-1,-77.018815,914.92231)" />
    <path
       style="fill:none;fill-opacity:0;stroke:#000000;stroke-width:1;stroke-dasharray:none"
       d="m 20.475705,408.05076 -0.023,-193.04161 2.11082,-1.8879 -2.11132,-1.92107 -0.023,-196.850515"
       id="path2-3"
       sodipodi:nodetypes="ccccc" />
    <path
       style="fill:none;fill-opacity:0.0352941;stroke:#000000;stroke-width:1;stroke-dasharray:none"
       d="m 96.797825,414.57496 -76.32212,-6.52432"
       id="path1" />
    <path
       style="fill:#000000;fill-opacity:0;stroke:#000000;stroke-width:1;stroke-dasharray:none;stroke-dashoffset:0"
       d="m 97.126725,213.12125 c 0.8454,-41.37439 17.578595,-65.6854 50.796405,-64.6671"
       id="path21"
       sodipodi:nodetypes="cc" />
    <path
       style="fill:#000000;fill-opacity:0;stroke:#000000;stroke-width:1;stroke-dasharray:none;stroke-dashoffset:0"
       d="m 97.126725,213.12125 c 1.1862,35.18296 10.664695,62.40105 50.796405,61.17079"
       id="path21-3"
       sodipodi:nodetypes="cc" />
    <path
       style="fill:none;fill-opacity:0.0352941;stroke:#000000;stroke-width:1;stroke-dasharray:none"
       d="M 147.92313,274.29204 96.797825,414.57505"
       id="path3" />
    <path
       style="fill:none;fill-opacity:0.0352941;stroke:#000000;stroke-width:1;stroke-dasharray:none"
       d="M 147.92313,148.45402 96.797625,8.1756646 20.452305,14.632485"
       id="path6-5"
       sodipodi:nodetypes="ccc" />
    <path
       style="fill:none;fill-opacity:0;stroke:#000000;stroke-width:1;stroke-dasharray:none"
       d="m 37.50803,886.38317 h 26.767401 l 6.436027,-8.23618 6.950732,8.23618 h 239.24596"
       id="path1-0"
       sodipodi:nodetypes="ccccc" />
    <path
       style="fill:none;fill-opacity:0;stroke:#000000;stroke-width:1;stroke-dasharray:none;stroke-dashoffset:0"
       d="M 37.50803,886.38317 V 429.18281"
       id="path3-3" />
    <path
       style="fill:none;fill-opacity:0.0352941;stroke:#000000;stroke-width:1;stroke-linecap:round;stroke-dasharray:none;stroke-dashoffset:0"
       d="m 37.50803,429.18281 30.357352,2.81284 2.415107,4.64945"
       id="path4-7"
       sodipodi:nodetypes="ccc" />
    <path
       style="fill:#000000;fill-opacity:0;stroke:#000000;stroke-width:1;stroke-dasharray:none;stroke-dashoffset:0"
       d="m 70.280489,436.6451 c 0.3656,-0.42168 1.893321,-4.493 2.272031,-4.50578 2.14443,-0.0723 1.56785,-0.0624 1.9794,-0.0708 41.37448,-0.84539 60.20982,-17.50775 59.19151,-50.72556"
       id="path21-63"
       sodipodi:nodetypes="cssc" />
    <path
       style="fill:#000000;fill-opacity:0.0352941;stroke:#000000;stroke-width:1;stroke-dasharray:none;stroke-dashoffset:0;stroke-opacity:1"
       d="m 133.72343,381.34299 139.7,50.8"
       id="path10" />
    <path
       style="fill:#000000;fill-opacity:0.0352941;stroke:#000000;stroke-width:1;stroke-dasharray:none;stroke-dashoffset:0;stroke-opacity:1"
       d="M 316.90815,886.38317 V 533.7429"
       id="path12" />
    <path
       style="fill:none;fill-opacity:0.0352941;stroke:#000000;stroke-width:1;stroke-dasharray:none;stroke-dashoffset:0;stroke-opacity:1"
       d="m 273.42343,432.14298 c 0,69.22152 2.81962,86.85057 16.57207,93.88073 6.43271,3.28836 13.05471,7.71919 26.91265,7.71919"
       id="path14"
       sodipodi:nodetypes="csc" />
    <path
       style="fill:none;fill-opacity:0;stroke:#000000;stroke-width:1;stroke-dasharray:none"
       d="m 380.1293,367.97791 v -26.7674 l 8.23618,-6.43603 -8.23618,-6.95073 V 88.577789"
       id="path1-0-2"
       sodipodi:nodetypes="ccccc" />
    <path
       style="fill:none;fill-opacity:0;stroke:#000000;stroke-width:1;stroke-dasharray:none;stroke-dashoffset:0"
       d="M 380.1293,367.97791 H 837.32947"
       id="path3-3-4" />
    <path
       style="fill:none;fill-opacity:0.0352941;stroke:#000000;stroke-width:1;stroke-linecap:round;stroke-dasharray:none;stroke-dashoffset:0"
       d="m 837.32947,367.97791 -2.94724,-30.56104 v 0 l -4.51535,-2.2113"
       id="path4-8"
       sodipodi:nodetypes="cccc" />
    <path
       style="fill:#000000;fill-opacity:0.0352941;stroke:#000000;stroke-width:1;stroke-dasharray:none;stroke-dashoffset:0;stroke-opacity:1"
       d="M 885.16902,271.76263 834.36931,132.06243"
       id="path10-5" />
    <path
       style="fill:#000000;fill-opacity:0.0352941;stroke:#000000;stroke-width:1;stroke-dasharray:none;stroke-dashoffset:0;stroke-opacity:1"
       d="M 380.1293,88.577531 H 732.76957"
       id="path12-0" />
    <path
       style="fill:none;fill-opacity:0.0352941;stroke:#000000;stroke-width:1;stroke-dasharray:none;stroke-dashoffset:0;stroke-opacity:1"
       d="m 834.36931,132.06243 c -69.22151,0 -86.85056,-2.81963 -93.88072,-16.57216 -3.28836,-6.43275 -7.71919,-13.05479 -7.71919,-26.912739"
       id="path14-1"
       sodipodi:nodetypes="csc" />
    <path
       style="fill:#000000;fill-opacity:0;stroke:#000000;stroke-width:1;stroke-dasharray:none"
       d="M 343.26543,881.37618 H 825.87311"
       id="path2-4" />
    <path
       style="fill:#000000;fill-opacity:0;stroke:#000000;stroke-width:1;stroke-linecap:butt;stroke-linejoin:miter;stroke-dasharray:none"
       d="m 825.87311,525.77618 v 355.6"
       id="path1-6"
       inkscape:connector-curvature="0"
       sodipodi:nodetypes="cc" />
    <path
       style="fill:#000000;fill-opacity:0;stroke:#000000;stroke-width:1;stroke-linecap:butt;stroke-linejoin:miter;stroke-dasharray:none"
       d="m 343.26543,525.77618 v 355.6"
       id="path1-6-1"
       inkscape:connector-curvature="0"
       sodipodi:nodetypes="cc" />
    <path
       style="fill:#000000;fill-opacity:0;stroke:#000000;stroke-width:1;stroke-dasharray:none;stroke-dashoffset:0"
       d="m 387.90973,399.00837 392.81708,-0.46448 v -0.20809"
       id="path5-2" />
    <path
       style="fill:none;fill-opacity:0;stroke:#000000;stroke-width:1;stroke-linecap:butt;stroke-linejoin:miter;stroke-dasharray:none"
       d="m 343.26543,525.77618 c 3.90389,0 27.78148,1.14559 37.47036,-17.73307 7.66918,-14.94332 7.17335,-36.24726 7.17335,-63.42674 l 5.9e-4,-45.608"
       id="path4-0"
       sodipodi:nodetypes="cscc" />
    <path
       style="fill:none;fill-opacity:0;stroke:#000000;stroke-width:1;stroke-linecap:butt;stroke-linejoin:miter;stroke-dasharray:none"
       d="m 780.72681,398.3358 0.5001,76.76895 c 0,17.74464 2.7605,24.18741 6.8133,31.05795 2.2253,3.77247 4.7818,6.4413 7.3283,8.55098 2.3059,1.91037 4.6036,3.36226 6.6396,4.75997 6.6569,4.56998 11.9223,4.87721 23.865,6.30253"
       id="path8-9"
       sodipodi:nodetypes="ccsssc" />
    <path
       style="fill:#000000;fill-opacity:0;stroke:#000000;stroke-width:1;stroke-dasharray:none;stroke-dashoffset:0"
       d="m 829.86688,335.20557 c 0.42168,-0.3656 4.493,-1.89332 4.50578,-2.27203 0.0723,-2.14443 0.0624,-1.56785 0.0708,-1.9794 0.84539,-41.37448 17.50775,-60.20982 50.72556,-59.19151"
       id="path21-63-6"
       sodipodi:nodetypes="cssc" />
  </g>
</svg>
